<?xml version="1.0" standalone="no"?>
<!DOCTYPE svg PUBLIC "-//W3C//DTD SVG 20010904//EN"
 "http://www.w3.org/TR/2001/REC-SVG-20010904/DTD/svg10.dtd">
<svg version="1.0" xmlns="http://www.w3.org/2000/svg"
 width="200.000000pt" height="200.000000pt" viewBox="0 0 200.000000 200.000000"
 preserveAspectRatio="xMidYMid meet">
<metadata>
Created by potrace 1.14, written by Peter Selinger 2001-2017
</metadata>
<g transform="translate(0.000000,200.000000) scale(0.100000,-0.100000)"
fill="#000000" stroke="none">
<path d="M502 1440 c-16 -26 -16 -26 17 -49 l28 -20 13 24 c12 22 11 26 -11
44 -30 25 -31 25 -47 1z"/>
<path d="M1415 1389 c-3 -4 -14 -5 -25 -2 -12 3 -20 0 -20 -6 0 -7 4 -9 10 -6
15 10 68 -23 76 -47 9 -26 6 -79 -4 -90 -4 -4 -20 -8 -37 -10 -49 -5 -57 -68
-8 -68 17 0 22 4 17 13 -4 6 2 3 14 -7 24 -21 29 -32 10 -20 -7 5 -8 3 -3 -6
6 -9 4 -11 -5 -5 -9 6 -11 4 -5 -5 6 -10 12 -8 27 9 10 13 15 27 12 32 -3 5 1
9 9 9 17 0 67 107 67 144 0 29 -31 65 -57 67 -10 1 -31 2 -46 3 -15 2 -30 0
-32 -5z"/>
<path d="M1768 1359 c-69 -42 -80 -55 -54 -65 16 -6 147 76 143 90 -6 20 -24
15 -89 -25z"/>
<path d="M1797 1321 c-56 -40 -65 -50 -53 -61 17 -13 20 -12 94 45 49 37 67
65 40 65 -7 -1 -43 -23 -81 -49z"/>
<path d="M63 1336 l-23 -23 24 -26 24 -26 23 25 23 25 -25 24 -24 24 -22 -23z"/>
<path d="M642 1339 c-11 -17 -10 -23 10 -39 29 -25 40 -25 55 -1 12 19 9 23
-42 54 -6 3 -17 -3 -23 -14z"/>
<path d="M195 1330 c-18 -20 -18 -21 5 -45 29 -31 37 -31 60 -2 18 21 18 23
-2 45 -26 27 -40 28 -63 2z"/>
<path d="M529 1319 c-12 -22 -10 -25 34 -50 15 -8 22 -7 33 8 18 25 18 26 -15
46 -37 21 -38 21 -52 -4z"/>
<path d="M1837 1289 c-37 -29 -67 -55 -67 -59 0 -4 7 -11 16 -14 18 -7 147
101 138 115 -9 15 -18 11 -87 -42z"/>
<path d="M1876 1257 c-44 -40 -67 -68 -62 -75 12 -20 20 -15 85 48 45 43 60
64 54 75 -7 11 -23 1 -77 -48z"/>
<path d="M717 1272 c-9 -21 -17 -43 -17 -49 0 -8 102 -43 124 -43 6 0 29 81
24 84 -2 2 -23 11 -48 20 -25 10 -50 20 -55 22 -6 3 -19 -13 -28 -34z"/>
<path d="M1641 1292 c-21 -11 -36 -26 -38 -39 -2 -18 1 -21 15 -16 36 14 83
46 75 52 -4 3 -10 9 -13 13 -3 3 -20 -1 -39 -10z"/>
<path d="M1902 1217 c-53 -54 -61 -66 -49 -76 13 -10 26 0 80 56 36 37 63 71
61 75 -11 18 -33 5 -92 -55z"/>
<path d="M1649 1235 c-32 -17 -50 -34 -57 -55 -6 -16 -8 -30 -5 -30 3 0 27 13
52 28 25 16 54 31 64 35 19 7 20 38 2 43 -5 2 -31 -8 -56 -21z"/>
<path d="M871 1209 c-7 -23 -11 -43 -8 -45 2 -2 32 -8 66 -12 68 -10 70 -8 74
43 2 30 -10 37 -89 49 -29 5 -32 3 -43 -35z"/>
<path d="M371 1222 c-11 -21 -4 -35 25 -50 17 -9 25 -8 38 7 14 15 14 20 3 29
-8 7 -17 9 -20 5 -4 -3 -7 -2 -7 4 0 20 -29 23 -39 5z"/>
<path d="M227 1206 c-15 -22 -14 -24 13 -45 36 -26 46 -26 61 0 10 19 7 25
-17 45 -36 29 -38 29 -57 0z"/>
<path d="M582 1210 c-10 -17 -8 -21 15 -34 24 -12 29 -12 39 2 9 13 7 19 -11
34 -29 22 -28 22 -43 -2z"/>
<path d="M1038 1181 l-4 -41 46 -1 c25 0 55 -2 68 -3 19 -2 22 2 22 36 0 30
-4 38 -19 38 -10 0 -39 3 -63 6 l-46 6 -4 -41z"/>
<path d="M1209 1206 c0 -1 -2 -16 -3 -35 l-3 -34 71 7 c38 4 71 8 73 10 2 2 1
16 -3 30 -6 26 -9 27 -70 25 -35 -1 -64 -3 -65 -3z"/>
<path d="M1665 1174 c-74 -45 -70 -40 -59 -64 9 -19 12 -18 74 23 60 39 80 65
55 74 -5 1 -37 -13 -70 -33z"/>
<path d="M662 1153 c-5 -16 -13 -35 -17 -44 -7 -18 1 -21 111 -44 29 -6 31 -5
43 35 7 23 11 43 9 44 -4 4 -123 36 -130 36 -3 0 -11 -12 -16 -27z"/>
<path d="M1404 1135 c-14 -14 -22 -30 -19 -35 3 -6 1 -10 -6 -10 -10 0 -10 -3
-2 -11 6 -6 9 -19 6 -28 -3 -9 3 -5 13 9 10 14 24 29 31 33 9 6 10 13 4 26 -7
12 -6 22 1 29 7 7 9 12 5 12 -5 0 -19 -11 -33 -25z m9 -18 c3 -7 -2 -22 -9
-32 -14 -19 -14 -18 -10 5 2 14 5 28 5 33 1 11 8 8 14 -6z"/>
<path d="M1688 1114 c-53 -36 -65 -48 -61 -65 7 -25 19 -21 94 34 54 38 70 66
44 73 -5 2 -40 -17 -77 -42z"/>
<path d="M425 1113 c-9 -13 -15 -26 -13 -28 2 -1 17 -10 35 -19 31 -15 33 -15
43 3 15 29 13 34 -19 53 -29 16 -30 16 -46 -9z"/>
<path d="M837 1087 l-15 -44 54 -2 c29 -1 63 -4 74 -6 21 -4 24 -1 34 47 7 30
1 33 -80 43 l-52 6 -15 -44z"/>
<path d="M1287 1123 c-1 -1 -18 -3 -37 -5 -33 -4 -35 -7 -38 -42 l-3 -38 58 8
c32 4 68 8 80 8 18 1 21 5 16 26 -4 13 -6 30 -6 37 0 8 -13 12 -34 10 -19 -1
-35 -3 -36 -4z"/>
<path d="M1026 1094 c-3 -9 -6 -27 -6 -40 0 -23 2 -24 75 -24 l75 0 0 40 0 40
-69 0 c-54 0 -70 -4 -75 -16z"/>
<path d="M1534 1102 c-5 -4 -23 -24 -38 -45 l-28 -37 41 19 c53 23 65 35 58
55 -7 17 -16 20 -33 8z"/>
<path d="M1718 1061 c-63 -43 -82 -71 -58 -86 14 -9 158 107 152 123 -6 19
-23 13 -94 -37z"/>
<path d="M601 1008 c-10 -24 -17 -45 -15 -47 3 -3 142 -31 155 -31 4 0 9 12
12 28 3 15 8 34 12 44 5 13 -4 18 -52 28 -32 6 -66 14 -76 16 -13 4 -22 -5
-36 -38z"/>
<path d="M1332 1037 c-6 -7 -33 -14 -59 -16 -60 -3 -63 -5 -63 -47 0 -37 18
-45 40 -19 14 17 40 20 40 4 0 -5 -5 -7 -12 -3 -7 4 -8 3 -4 -5 10 -15 27 -4
24 16 -2 9 3 18 11 21 10 3 11 0 5 -9 -6 -12 -5 -12 8 -1 9 7 15 21 13 30 -4
24 6 37 16 21 4 -7 11 -11 14 -8 3 4 -1 11 -8 18 -11 9 -17 8 -25 -2z m-5 -31
c0 -8 -6 -12 -15 -9 -11 5 -11 7 0 14 7 5 13 9 14 9 0 0 1 -6 1 -14z"/>
<path d="M1494 1006 c-66 -31 -71 -36 -67 -60 3 -14 7 -26 8 -26 2 0 36 18 76
39 50 27 75 46 77 60 5 28 -10 26 -94 -13z"/>
<path d="M221 1007 c-15 -22 -5 -35 41 -55 24 -10 29 -9 38 8 13 24 13 43 0
35 -5 -3 -10 -2 -10 2 0 5 -13 13 -28 19 -25 10 -31 8 -41 -9z"/>
<path d="M495 1011 c-7 -18 22 -43 45 -39 8 2 15 12 15 23 -1 11 -6 19 -13 18
-7 -2 -12 1 -12 5 0 15 -29 9 -35 -7z m55 -27 c0 -2 -8 0 -19 5 -10 6 -22 7
-26 3 -5 -4 -5 -1 -1 6 5 9 12 9 27 2 10 -6 19 -13 19 -16z"/>
<path d="M811 992 c-4 -9 -11 -28 -14 -42 l-6 -26 83 0 84 -1 7 35 c3 19 5 35
3 37 -2 2 -36 6 -75 9 -62 4 -74 2 -82 -12z"/>
<path d="M1078 1002 c-56 -2 -68 -6 -69 -20 0 -9 -2 -27 -3 -40 -3 -23 -2 -23
78 -17 45 4 84 11 87 16 9 15 -2 66 -14 65 -7 -1 -42 -2 -79 -4z"/>
<path d="M20 959 c-14 -24 -8 -33 30 -49 24 -10 33 -10 45 0 24 20 17 34 -25
52 -39 16 -40 16 -50 -3z"/>
<path d="M1522 937 c-73 -38 -82 -45 -82 -70 l0 -28 88 46 c48 26 88 48 90 49
1 2 -1 13 -5 24 -8 20 -10 20 -91 -21z"/>
<path d="M1245 939 c-5 -8 -4 -10 3 -5 19 11 14 -9 -6 -27 -21 -19 -42 -23
-24 -5 7 7 12 16 12 20 0 4 -8 0 -18 -9 -15 -15 -16 -19 -4 -27 20 -12 71 39
55 55 -8 8 -13 7 -18 -2z"/>
<path d="M396 905 c-9 -24 -10 -23 36 -36 37 -9 44 -9 55 7 17 23 8 31 -43 40
-33 5 -42 3 -48 -11z"/>
<path d="M541 880 c-13 -23 -21 -43 -20 -45 4 -3 22 -5 135 -20 l50 -7 12 40
c7 21 12 42 12 44 0 3 -24 8 -52 12 -29 4 -67 9 -83 12 -27 5 -33 1 -54 -36z"/>
<path d="M1350 900 c-9 -17 -8 -19 12 -11 26 9 36 31 14 31 -8 0 -20 -9 -26
-20z"/>
<path d="M1074 898 l-80 -10 -3 -40 -2 -40 63 7 c35 4 65 11 66 16 2 5 10 9
17 9 7 0 16 7 19 16 5 14 9 14 23 3 14 -12 16 -12 8 0 -6 11 -4 13 9 8 11 -4
15 -3 11 4 -4 6 -13 8 -21 5 -9 -3 -14 2 -14 14 0 11 -3 19 -7 19 -5 -1 -44
-6 -89 -11z"/>
<path d="M775 880 c-3 -4 -7 -23 -10 -43 l-6 -35 87 4 c48 2 89 6 91 8 3 2 7
18 9 35 4 25 2 31 -13 32 -10 0 -49 2 -86 3 -37 2 -70 0 -72 -4z"/>
<path d="M246 859 c-15 -23 -15 -23 31 -41 49 -19 57 -17 67 18 5 18 1 22 -21
27 -16 3 -35 8 -44 12 -11 4 -22 -2 -33 -16z"/>
<path d="M1342 857 c-32 -10 -119 -83 -110 -92 4 -4 156 49 165 59 7 6 -7 46
-15 45 -4 -1 -22 -6 -40 -12z"/>
<path d="M1154 835 c-4 -8 -11 -12 -17 -8 -6 3 -7 1 -3 -5 9 -15 33 -5 33 13
0 19 -6 19 -13 0z"/>
<path d="M1093 797 c-3 -6 -1 -7 5 -3 5 3 12 1 14 -6 3 -8 6 -7 10 3 7 17 -19
22 -29 6z"/>
<path d="M485 750 c-10 -22 -16 -43 -13 -45 3 -3 48 -8 100 -12 l94 -6 12 39
c6 21 10 39 9 41 -4 4 -138 23 -163 23 -15 0 -26 -12 -39 -40z"/>
<path d="M1075 780 c3 -6 1 -10 -6 -10 -7 0 -10 -3 -6 -6 3 -3 13 -2 22 4 16
8 16 9 1 15 -10 4 -15 3 -11 -3z"/>
<path d="M341 762 c-7 -13 -6 -19 2 -20 39 -5 53 -9 62 -14 6 -3 11 5 11 18 2
20 0 21 -13 9 -17 -18 -27 -20 -17 -4 3 6 0 15 -7 20 -20 13 -27 11 -38 -9z
m34 -2 c3 -5 -1 -10 -9 -10 -9 0 -16 5 -16 10 0 6 4 10 9 10 6 0 13 -4 16 -10z"/>
<path d="M980 749 c0 -16 -5 -31 -10 -34 -6 -4 -8 -11 -5 -16 4 -5 -1 -9 -10
-9 -9 0 -26 -10 -37 -22 -11 -13 -17 -18 -14 -12 3 6 -28 -6 -69 -28 -112 -59
-172 -76 -253 -75 -73 2 -80 -3 -34 -27 33 -17 112 -13 168 7 54 20 167 76
174 86 3 5 20 16 38 25 19 10 30 21 26 28 -4 6 -3 8 4 4 6 -3 18 2 28 11 10
10 22 18 28 18 6 0 12 10 14 23 3 18 8 22 25 18 12 -3 16 -3 10 0 -7 3 -13 12
-13 20 0 10 -10 14 -35 12 -31 -2 -35 -5 -35 -29z m14 -34 c-4 -8 -11 -15 -16
-15 -6 0 -5 6 2 15 7 8 14 15 16 15 2 0 1 -7 -2 -15z"/>
<path d="M732 737 c-5 -18 -7 -37 -5 -43 3 -9 159 -9 189 1 6 2 11 18 10 36
l-1 33 -92 2 -93 2 -8 -31z"/>
</g>
</svg>
